<?xml version="1.0" encoding="UTF-8"?>
<svg xmlns="http://www.w3.org/2000/svg" xmlns:xlink="http://www.w3.org/1999/xlink" width="583pt" height="553pt" viewBox="0 0 583 553" version="1.1">
<g id="surface1">
<path style=" stroke:none;fill-rule:nonzero;fill:rgb(0%,0%,0%);fill-opacity:1;" d="M 272 8.628906 C 241.398438 12.394531 226.421875 15.546875 206.101562 22.496094 C 181.601562 30.878906 162.480469 40.433594 141.5 54.789062 C 126.199219 65.257812 118.234375 71.757812 105.199219 84.414062 C 43.632812 144.203125 14.007812 228 24.53125 312.601562 C 32.03125 372.898438 58.511719 427.394531 101.066406 470.101562 C 115.714844 484.800781 124.453125 492.191406 139 502.183594 C 174.882812 526.839844 212.699219 541.679688 256.101562 548.132812 C 274.300781 550.839844 307.96875 551.347656 324 549.15625 C 359.199219 544.347656 386.78125 535.875 416.300781 520.796875 C 507.316406 474.304688 564.074219 381.601562 564.027344 279.5 C 564.007812 234.300781 554.28125 194.421875 533.460938 154.199219 C 507.128906 103.328125 466.898438 63.511719 415.5 37.445312 C 376.867188 17.855469 340.699219 9.050781 296.5 8.472656 C 284.898438 8.320312 273.933594 8.394531 272 8.628906 Z M 438.226562 147.800781 C 439.753906 149.601562 508 267.660156 508 268.5 C 508 268.773438 482.851562 269.113281 452.050781 269.25 L 396.101562 269.5 L 428.148438 325 C 445.761719 355.5 460.425781 381.289062 460.699219 382.25 C 461.171875 383.902344 457.898438 384 401.699219 384 C 355.300781 384 341.992188 383.726562 341.25 382.75 C 340.726562 382.0625 326.449219 357.398438 309.550781 328 C 292.652344 298.601562 278.484375 274.160156 278.101562 273.75 C 277.714844 273.335938 263.734375 296.75 247.050781 325.75 C 230.363281 354.75 215.84375 379.738281 214.800781 381.25 L 212.898438 384 L 153.449219 384 C 119.648438 384 94 383.613281 94 383.101562 C 94 382.09375 228.046875 149.800781 229.957031 147.5 C 231.050781 146.179688 243.550781 146 333.949219 146 C 430.550781 146 436.789062 146.109375 438.226562 147.800781 "/>
<path style=" stroke:none;fill-rule:nonzero;fill:rgb(0%,0%,0%);fill-opacity:1;" d="M 308.300781 218.25 L 284.101562 260.5 L 332.699219 260.75 C 359.398438 260.886719 381.523438 260.773438 381.800781 260.5 C 382.425781 259.878906 334.601562 176.660156 333.398438 176.285156 C 332.90625 176.128906 321.589844 195.050781 308.300781 218.25 "/>
</g>
</svg>
